<svg width="25" height="24" viewBox="0 0 25 24" fill="none" xmlns="http://www.w3.org/2000/svg">
<g clip-path="url(#clip0_2252_80606)">
<rect x="8.33376" y="8.12402" width="7.83333" height="7.83333" rx="1.44624" fill="#646872"/>
<rect x="10.0574" y="9.84766" width="4.38586" height="4.38586" rx="0.964159" fill="white"/>
<path d="M12.2498 3.03247C7.27879 3.03247 3.24144 7.06991 3.24144 12.0408C3.24144 17.0117 7.27888 21.0491 12.2498 21.0491C17.2207 21.0491 21.2581 17.0117 21.2581 12.0408C21.2581 7.06991 17.2207 3.03247 12.2498 3.03247ZM12.2498 19.8127C7.96014 19.8127 4.47788 16.3304 4.47788 12.0408C4.47788 7.75117 7.96014 4.26891 12.2498 4.26891C16.5394 4.26891 20.0217 7.75117 20.0217 12.0408C20.0217 16.3304 16.5394 19.8127 12.2498 19.8127Z" fill="#646872"/>
<path d="M12.2498 0C5.76872 0 0.499771 5.26895 0.499771 11.75C0.499771 18.2311 5.76872 23.5 12.2498 23.5C18.7308 23.5 23.9998 18.2311 23.9998 11.75C23.9998 5.26895 18.7308 0 12.2498 0ZM12.2498 22.1395C6.51082 22.1395 1.8603 17.4889 1.8603 11.75C1.8603 6.01105 6.51082 1.36053 12.2498 1.36053C17.9887 1.36053 22.6392 6.01105 22.6392 11.75C22.6392 17.4889 17.9887 22.1395 12.2498 22.1395Z" fill="#646872"/>
</g>
<defs>
<clipPath id="clip0_2252_80606">
<rect width="24" height="24" fill="white" transform="translate(0.5)"/>
</clipPath>
</defs>
</svg>
