<svg width="58" height="30" viewBox="0 0 58 30" fill="none" xmlns="http://www.w3.org/2000/svg">
<path fill-rule="evenodd" clip-rule="evenodd" d="M0.896729 0H57.8967V2.30862H0.896729V0ZM0.896729 4.61719H57.8967V6.92581H0.896729V4.61719ZM0.896729 9.2285H57.8967V11.5429H0.896729V9.2285ZM0.896729 13.8457H57.8967V16.1543H0.896729V13.8457ZM0.896729 18.4629H57.8967V20.7715H0.896729V18.4629ZM0.896729 23.0742H57.8967V25.3828H0.896729V23.0742ZM0.896729 27.6914H57.8967V30H0.896729V27.6914Z" fill="#BD3D44"/>
<path fill-rule="evenodd" clip-rule="evenodd" d="M0.896729 2.30862H57.8967V4.61719H0.896729V2.30862ZM0.896729 6.92575H57.8967V9.2285H0.896729V6.92575ZM0.896729 11.5371H57.8967V13.8457H0.896729V11.5371ZM0.896729 16.1543H57.8967V18.4629H0.896729V16.1543ZM0.896729 20.7715H57.8967V23.0801H0.896729V20.7715ZM0.896729 25.3828H57.8967V27.6914H0.896729V25.3828Z" fill="white"/>
<path fill-rule="evenodd" clip-rule="evenodd" d="M0.896729 0H23.6955V16.1543H0.896729V0Z" fill="#192F5D"/>
<path fill-rule="evenodd" clip-rule="evenodd" d="M2.79513 0.691437L3.00607 1.33H3.67407L3.13495 1.72262L3.34007 2.36712L2.79513 1.96869L2.25607 2.36125L2.46113 1.72262L1.91626 1.33H2.59595L2.79513 0.691437ZM6.59789 0.691437L6.80295 1.33H7.47676L6.93182 1.72262L7.13695 2.36712L6.59789 1.96869L6.05295 2.36125L6.25801 1.72262L5.71895 1.33H6.38695L6.59789 0.691437ZM10.3948 0.691437L10.6057 1.33006H11.2678L10.7288 1.72269L10.9338 2.36719L10.3889 1.96875L9.84982 2.36131L10.0549 1.72269L9.50995 1.33006H10.1838L10.3948 0.691437ZM14.1975 0.691437L14.4025 1.33006H15.0764L14.5314 1.72269L14.7424 2.36719L14.1974 1.96875L13.6526 2.36131L13.8635 1.72269L13.3186 1.33006H13.9866L14.1975 0.691437ZM17.9944 0.691437L18.2053 1.33006H18.8733L18.3342 1.72269L18.5393 2.36719L17.9943 1.96875L17.4553 2.36131L17.6604 1.72269L17.1213 1.33006H17.7893L17.9944 0.691437ZM21.7971 0.691437L22.0021 1.33006H22.676L22.1311 1.72269L22.342 2.36719L21.7971 1.96875L21.2521 2.36131L21.4631 1.72269L20.9182 1.33006H21.592L21.7971 0.691437ZM4.69945 2.3085L4.90451 2.94725H5.57832L5.03338 3.33975L5.23263 3.9785L4.70526 3.58587L4.16038 3.97844L4.3537 3.33981L3.82638 2.94719H4.49438L4.69945 2.3085ZM8.49632 2.3085L8.70726 2.94725H9.3752L8.83026 3.33975L9.04126 3.9785L8.49626 3.58587L7.95138 3.97844L8.16232 3.33981L7.61738 2.94719H8.2912L8.49632 2.3085ZM12.2991 2.3085L12.5041 2.94725H13.1779L12.633 3.33975L12.8381 3.9785L12.299 3.58587L11.7541 3.97844L11.9592 3.33987L11.4201 2.94725H12.0881L12.2991 2.3085ZM16.0959 2.3085L16.3069 2.94725H16.9748L16.4299 3.33975L16.6408 3.9785L16.0959 3.58587L15.5568 3.97844L15.7619 3.33981L15.217 2.94719H15.8967L16.0959 2.3085ZM19.8986 2.3085L20.1037 2.94725H20.7776L20.2326 3.33975L20.4377 3.9785L19.8986 3.58587L19.3537 3.97844L19.5588 3.33981L19.0198 2.94719H19.6877L19.8986 2.3085ZM2.79513 3.92L3.00607 4.57037H3.67407L3.13495 4.96294L3.34007 5.60162L2.79513 5.20319L2.25607 5.60162L2.46113 4.95706L1.91626 4.56456H2.59595L2.79513 3.92ZM6.59789 3.92L6.80295 4.56437H7.47676L6.93182 4.95694L7.13695 5.59569L6.59789 5.19719L6.05295 5.59562L6.25801 4.95112L5.71895 4.55856H6.38695L6.59789 3.92ZM10.3948 3.92L10.6057 4.5645H11.2678L10.7288 4.95706L10.9338 5.59581L10.3889 5.19731L9.84982 5.59575L10.0549 4.95125L9.50995 4.55869H10.1838L10.3948 3.92ZM14.1975 3.92L14.4025 4.5645H15.0764L14.5314 4.95706L14.7424 5.59581L14.1974 5.19731L13.6526 5.59575L13.8635 4.95125L13.3186 4.55869H13.9866L14.1975 3.92ZM17.9944 3.92L18.2053 4.5645H18.8733L18.3342 4.957L18.5393 5.59575L17.9943 5.19725L17.4553 5.59569L17.6604 4.95119L17.1213 4.55862H17.7893L17.9944 3.92ZM21.7971 3.92L22.0021 4.5645H22.676L22.1311 4.95706L22.342 5.59581L21.7971 5.19731L21.2521 5.59575L21.4631 4.95125L20.9182 4.55869H21.592L21.7971 3.92ZM4.69945 5.53712L4.90451 6.17581H5.57832L5.03338 6.56831L5.23851 7.21287L4.69945 6.81444L4.15451 7.207L4.35957 6.56837L3.82051 6.17581H4.48857L4.69945 5.53712ZM8.49632 5.53712L8.70726 6.17581H9.3752L8.83026 6.56831L9.04126 7.21287L8.49626 6.81444L7.95138 7.207L8.16232 6.56837L7.61738 6.17581H8.2912L8.49632 5.53712ZM12.2991 5.53712L12.5041 6.17581H13.1779L12.633 6.56831L12.8381 7.21287L12.299 6.81444L11.7541 7.207L11.9592 6.56837L11.4201 6.17581H12.0881L12.2991 5.53712ZM16.0959 5.53712L16.3069 6.17581H16.9748L16.4358 6.56831L16.6408 7.21287L16.0959 6.81444L15.5568 7.207L15.7619 6.56837L15.217 6.17581H15.8967L16.0959 5.53712ZM19.8986 5.53712L20.1037 6.17581H20.7776L20.2326 6.56831L20.4377 7.21287L19.8986 6.81444L19.3537 7.207L19.5588 6.56837L19.0198 6.17581H19.6877L19.8986 5.53712ZM2.79513 7.15431L3.00607 7.793H3.67407L3.13495 8.1855L3.34007 8.83006L2.79513 8.43162L2.25607 8.82419L2.46113 8.18556L1.91626 7.793H2.59595L2.79513 7.15431ZM6.59789 7.15431L6.80295 7.793H7.47676L6.93182 8.1855L7.13695 8.82425L6.59789 8.43162L6.05295 8.82419L6.25801 8.18556L5.71895 7.793H6.38695L6.59789 7.15431ZM10.3948 7.15431L10.6057 7.793H11.2678L10.7288 8.1855L10.9338 8.83006L10.3889 8.43162L9.84982 8.82419L10.0549 8.18556L9.50995 7.793H10.1838L10.3948 7.15431ZM14.1975 7.15431L14.4025 7.793H15.0764L14.5314 8.1855L14.7424 8.83006L14.1974 8.43162L13.6526 8.82419L13.8635 8.18556L13.3186 7.793H13.9866L14.1975 7.15431ZM17.9944 7.15431L18.2053 7.793H18.8733L18.3342 8.1855L18.5393 8.83006L17.9943 8.43162L17.4553 8.82419L17.6604 8.18556L17.1213 7.793H17.7893L17.9944 7.15431ZM21.7971 7.15431L22.0021 7.793H22.676L22.1311 8.1855L22.342 8.83006L21.7971 8.43162L21.2521 8.82419L21.4631 8.18556L20.9182 7.793H21.592L21.7971 7.15431ZM4.69945 8.7715L4.90451 9.41019H5.57832L5.03338 9.80269L5.23851 10.4414L4.69945 10.043L4.15451 10.4414L4.35957 9.79687L3.82051 9.40431H4.48857L4.69945 8.7715ZM8.49632 8.7715L8.70726 9.41019H9.3752L8.83026 9.80269L9.04126 10.4414L8.49626 10.043L7.95138 10.4414L8.16232 9.79687L7.61738 9.40431H8.2912L8.49632 8.7715ZM12.2991 8.7715L12.5041 9.41019H13.1779L12.633 9.80269L12.8381 10.4414L12.299 10.043L11.7541 10.4414L11.9592 9.79687L11.4201 9.40431H12.0881L12.2991 8.7715ZM16.0959 8.7715L16.3069 9.41019H16.9748L16.4358 9.80269L16.6408 10.4414L16.0959 10.043L15.5568 10.4414L15.7619 9.79687L15.217 9.40431H15.8967L16.0959 8.7715ZM19.8986 8.7715L20.1037 9.41019H20.7776L20.2326 9.80269L20.4377 10.4414L19.8986 10.043L19.3537 10.4414L19.5588 9.79687L19.0198 9.40431H19.6877L19.8986 8.7715ZM2.79513 10.3828L3.00607 11.0274H3.67407L3.13495 11.4199L3.34007 12.0527L2.79513 11.6602L2.25607 12.0527L2.46113 11.4141L1.91626 11.0215H2.59595L2.79513 10.3828ZM6.59789 10.3828L6.80295 11.0274H7.47676L6.93182 11.4199L7.14282 12.0527L6.59782 11.6602L6.05295 12.0527L6.26388 11.4141L5.71895 11.0215H6.38695L6.59789 10.3828ZM10.3948 10.3828L10.6057 11.0274H11.2678L10.7288 11.4199L10.9338 12.0527L10.3889 11.6602L9.84982 12.0527L10.0549 11.4141L9.50995 11.0215H10.1838L10.3948 10.3828ZM14.1975 10.3828L14.4025 11.0274H15.0764L14.5314 11.4199L14.7424 12.0527L14.1974 11.6602L13.6526 12.0527L13.8635 11.4141L13.3186 11.0215H13.9866L14.1975 10.3828ZM17.9944 10.3828L18.2053 11.0274H18.8733L18.3342 11.4199L18.5393 12.0527L17.9943 11.6602L17.4553 12.0527L17.6604 11.4141L17.1213 11.0215H17.7893L17.9944 10.3828ZM21.7971 10.3828L22.0021 11.0274H22.676L22.1311 11.4199L22.342 12.0527L21.7971 11.6602L21.2521 12.0527L21.4631 11.4141L20.9182 11.0215H21.592L21.7971 10.3828ZM4.69945 12L4.90451 12.6387H5.57832L5.03338 13.0312L5.23851 13.6758L4.69945 13.2774L4.15451 13.6699L4.35957 13.0312L3.82051 12.6387H4.48857L4.69945 12ZM8.49632 12L8.70726 12.6387H9.3752L8.83026 13.0312L9.04126 13.6758L8.49626 13.2774L7.95138 13.6699L8.16232 13.0312L7.61738 12.6387H8.2912L8.49632 12ZM12.2991 12L12.5041 12.6387H13.1779L12.633 13.0312L12.8381 13.6758L12.299 13.2774L11.7541 13.6699L11.9592 13.0312L11.4201 12.6387H12.0881L12.2991 12ZM16.0959 12L16.3069 12.6387H16.9748L16.4358 13.0312L16.6408 13.6758L16.0959 13.2774L15.5568 13.6699L15.7619 13.0312L15.217 12.6387H15.8967L16.0959 12ZM19.8986 12L20.1037 12.6387H20.7776L20.2326 13.0312L20.4377 13.6758L19.8986 13.2774L19.3537 13.6699L19.5588 13.0312L19.0198 12.6387H19.6877L19.8986 12ZM2.79513 13.6172L3.00607 14.2559H3.67407L3.13495 14.6484L3.34007 15.2871L2.79513 14.8946L2.25607 15.2871L2.46113 14.6426L1.91626 14.25H2.59595L2.79513 13.6172ZM6.59789 13.6172L6.80295 14.2559H7.47676L6.93182 14.6484L7.14282 15.2871L6.59782 14.8946L6.05295 15.2871L6.26388 14.6426L5.71895 14.25H6.38695L6.59789 13.6172ZM10.3948 13.6172L10.6057 14.2559H11.2678L10.7404 14.6484L10.9455 15.2871L10.4006 14.8946L9.86151 15.2871L10.0666 14.6426L9.5217 14.25H10.1955L10.3948 13.6172ZM14.1975 13.6172L14.4025 14.2559H15.0764L14.5314 14.6484L14.7424 15.2871L14.1974 14.8946L13.6526 15.2871L13.8635 14.6426L13.3186 14.25H13.9866L14.1975 13.6172ZM17.9944 13.6172L18.2053 14.2559H18.8733L18.3342 14.6484L18.5393 15.2871L17.9943 14.8946L17.4553 15.2871L17.6604 14.6426L17.1213 14.25H17.7893L17.9944 13.6172ZM21.7971 13.6172L22.0021 14.2559H22.676L22.1311 14.6484L22.342 15.2871L21.7971 14.8946L21.2521 15.2871L21.4631 14.6426L20.9182 14.25H21.592L21.7971 13.6172Z" fill="white"/>
</svg>
