<svg width="28" height="24" viewBox="0 0 28 24" fill="none" xmlns="http://www.w3.org/2000/svg">
<path fill-rule="evenodd" clip-rule="evenodd" d="M0 1.5C0 0.671574 0.671573 0 1.5 0H26.5C27.3284 0 28 0.671573 28 1.5V1.63043C28 2.45886 27.3284 3.13043 26.5 3.13043H1.5C0.671572 3.13043 0 2.45886 0 1.63043V1.5ZM0 11.9345C0 11.1061 0.671573 10.4345 1.5 10.4345H26.5C27.3284 10.4345 28 11.1061 28 11.9345V12.0649C28 12.8934 27.3284 13.5649 26.5 13.5649H1.5C0.671572 13.5649 0 12.8934 0 12.0649V11.9345ZM1.5 20.869C0.671573 20.869 0 21.5406 0 22.369V22.4995C0 23.3279 0.671572 23.9995 1.5 23.9995H26.5C27.3284 23.9995 28 23.3279 28 22.4995V22.369C28 21.5406 27.3284 20.869 26.5 20.869H1.5Z" fill="#81848F"/>
</svg>
