<svg width="24" height="24" viewBox="0 0 24 24" fill="none" xmlns="http://www.w3.org/2000/svg">
<path d="M13.3091 3.94598C12.9675 2.89724 11.4837 2.89724 11.1433 3.94598L9.92486 7.69456C9.85042 7.92286 9.70572 8.12178 9.51143 8.26289C9.31715 8.40401 9.08322 8.48009 8.8431 8.48026H4.90093C3.79754 8.48026 3.33978 9.89225 4.23138 10.5413L7.41973 12.8574C7.61441 12.9986 7.75938 13.1979 7.83384 13.4266C7.9083 13.6553 7.90843 13.9017 7.83421 14.1305L6.61581 17.8791C6.2742 18.9278 7.47553 19.8012 8.3694 19.1521L11.5577 16.836C11.7522 16.6948 11.9864 16.6188 12.2267 16.6188C12.4671 16.6188 12.7012 16.6948 12.8957 16.836L16.0841 19.1521C16.9768 19.8012 18.177 18.9278 17.8365 17.8791L16.6181 14.1305C16.5439 13.9017 16.544 13.6553 16.6185 13.4266C16.693 13.1979 16.8379 12.9986 17.0326 12.8574L20.2198 10.5424C21.1114 9.89339 20.6525 8.4814 19.5503 8.4814H15.6092C15.3689 8.48147 15.1347 8.4055 14.9402 8.26437C14.7457 8.12324 14.6008 7.92418 14.5263 7.6957L13.3079 3.94712L13.3091 3.94598Z" fill="#9E9E9E"/>
</svg>
