<svg width="94" height="90" viewBox="0 0 94 90" fill="none" xmlns="http://www.w3.org/2000/svg">
<path d="M52.789 4.74093C50.9183 -1.00227 42.793 -1.00227 40.9285 4.74093L34.2562 25.2693C33.8485 26.5195 33.0561 27.6088 31.9921 28.3816C30.9282 29.1544 29.6471 29.571 28.3321 29.572H6.74372C0.701207 29.572 -1.80559 37.3044 3.07706 40.8588L20.5374 53.5425C21.6035 54.3159 22.3974 55.4071 22.8051 56.6595C23.2129 57.9119 23.2136 59.2613 22.8072 60.5141L16.1349 81.0425C14.2641 86.7857 20.8429 91.5685 25.738 88.0141L43.1983 75.3305C44.2634 74.5572 45.5458 74.1408 46.8619 74.1408C48.178 74.1408 49.4604 74.5572 50.5254 75.3305L67.9857 88.0141C72.8746 91.5685 79.4472 86.7857 77.5827 81.0425L70.9103 60.5141C70.5039 59.2613 70.5047 57.9119 70.9124 56.6595C71.3202 55.4071 72.1141 54.3159 73.1802 53.5425L90.6343 40.8651C95.5169 37.3106 93.0039 29.5782 86.9676 29.5782H65.3854C64.0694 29.5786 62.7869 29.1625 61.7217 28.3897C60.6565 27.6168 59.8631 26.5267 59.4551 25.2755L52.7828 4.74716L52.789 4.74093Z" fill="url(#paint0_linear_2444_313)"/>
<defs>
<linearGradient id="paint0_linear_2444_313" x1="47.0352" y1="100.678" x2="47.0352" y2="-21.5379" gradientUnits="userSpaceOnUse">
<stop stop-color="#E0E0E0"/>
<stop offset="1" stop-color="#E0E0E0"/>
</linearGradient>
</defs>
</svg>
